HIERARCHY
ROOT root
{
	OFFSET	0	13.1	24.9
	CHANNELS 6  Xposition Yposition Zposition Xrotation Yrotation Zrotation
	JOINT spine_1
	{
		OFFSET	0	9.99999	0
		CHANNELS 3  Xrotation Yrotation Zrotation
		JOINT spine_2
		{
			OFFSET	0	112	-10
			CHANNELS 3  Xrotation Yrotation Zrotation
			JOINT spine_3
			{
				OFFSET	0	206.5	19.3
				CHANNELS 3  Xrotation Yrotation Zrotation
				JOINT spine_4
				{
					OFFSET	0	110.4	14.6
					CHANNELS 3  Xrotation Yrotation Zrotation
					JOINT neck_1
					{
						OFFSET	0	71.8	-50.3
						CHANNELS 3  Xrotation Yrotation Zrotation
						JOINT neck_2
						{
							OFFSET	0	86.2	-25.8
							CHANNELS 3  Xrotation Yrotation Zrotation
							JOINT head_ee
							{
								OFFSET	0	179.8	-8.7
								CHANNELS 3  Xrotation Yrotation Zrotation
								End Site
								{
									OFFSET	1	0	0
								}
							}
						}
					}
					JOINT left_clavicle
					{
						OFFSET	-43.2	22.4	-70.8
						CHANNELS 3  Xrotation Yrotation Zrotation
						JOINT left_shoulder
						{
							OFFSET	-93.9	-5.79999	48.7
							CHANNELS 3  Xrotation Yrotation Zrotation
							JOINT left_elbow
							{
								OFFSET	-291.4	-30.8	15.2
								CHANNELS 3  Xrotation Yrotation Zrotation
								JOINT left_lowarm_twist
								{
									OFFSET	-110.7	-3.89999	13.6
									CHANNELS 3  Xrotation Yrotation Zrotation
									JOINT left_hand
									{
										OFFSET	-110.7	-3.89999	13.6
										CHANNELS 3  Xrotation Yrotation Zrotation
										JOINT left_ee
										{
											OFFSET	-80.8	-5.10001	12.1
											CHANNELS 3  Xrotation Yrotation Zrotation
											End Site
											{
												OFFSET	1	0	0
											}
										}
									}
								}
							}
						}
					}
					JOINT right_clavicle
					{
						OFFSET	43.2	22.4	-70.8
						CHANNELS 3  Xrotation Yrotation Zrotation
						JOINT right_shoulder
						{
							OFFSET	93.9	-5.79999	48.7
							CHANNELS 3  Xrotation Yrotation Zrotation
							JOINT right_elbow
							{
								OFFSET	291.4	-30.8	15.2
								CHANNELS 3  Xrotation Yrotation Zrotation
								JOINT right_lowarm_twist
								{
									OFFSET	110.7	-3.89999	13.6
									CHANNELS 3  Xrotation Yrotation Zrotation
									JOINT right_hand
									{
										OFFSET	110.7	-3.89999	13.6
										CHANNELS 3  Xrotation Yrotation Zrotation
										JOINT right_ee
										{
											OFFSET	80.8	-5.10001	12.1
											CHANNELS 3  Xrotation Yrotation Zrotation
											End Site
											{
												OFFSET	1	0	0
											}
										}
									}
								}
							}
						}
					}
				}
			}
		}
	}
	JOINT left_hip
	{
		OFFSET	-82.8	-127.5	0.300001
		CHANNELS 3  Xrotation Yrotation Zrotation
		JOINT left_knee
		{
			OFFSET	-28.2	-396.7	2.2
			CHANNELS 3  Xrotation Yrotation Zrotation
			JOINT left_ankle
			{
				OFFSET	-11.7	-411.3	35.4
				CHANNELS 3  Xrotation Yrotation Zrotation
				JOINT left_toes
				{
					OFFSET	0	-60	-88.6
					CHANNELS 3  Xrotation Yrotation Zrotation
					JOINT left_foot_ee
					{
						OFFSET	-22.5	-16.5	-42.2
						CHANNELS 3  Xrotation Yrotation Zrotation
						End Site
						{
							OFFSET	1	0	0
						}
					}
				}
			}
		}
	}
	JOINT right_hip
	{
		OFFSET	82.8	-127.5	0.300001
		CHANNELS 3  Xrotation Yrotation Zrotation
		JOINT right_knee
		{
			OFFSET	28.2	-396.7	2.2
			CHANNELS 3  Xrotation Yrotation Zrotation
			JOINT right_ankle
			{
				OFFSET	11.7	-411.3	35.4
				CHANNELS 3  Xrotation Yrotation Zrotation
				JOINT right_toes
				{
					OFFSET	0	-60	-88.6
					CHANNELS 3  Xrotation Yrotation Zrotation
					JOINT right_foot_ee
					{
						OFFSET	22.5	-16.5	-42.2
						CHANNELS 3  Xrotation Yrotation Zrotation
						End Site
						{
							OFFSET	1	0	0
						}
					}
				}
			}
		}
	}
}
MOTION
Frames: 10
Frame Time: 0.02
613.04342461 719.558 -1187.27075284 -172.051447445 -35.9403627179 -170.8557987 1.83954 0.274058 1.09555 1.84019 0.203794 1.11077 1.84419 0.00214274 1.1293 1.84245 0.180457 1.11479 -2.79171 -15.328 -3.00378 -2.49707 -25.551 -5.26159 -0.0 0.0 -0.0 -0.564709 20.7895 1.604 -7.45943 -48.1884 62.8276 0.716225 -19.5345 0.123294 12.247 0.267968 -1.53853 -1.91331 19.6917 -3.45985 -0.0 0.0 -0.0 7.61265 9.21618 -14.7133 -22.1983 27.168 -63.1494 0.925772 24.6358 -0.202158 30.2287 -0.0592312 3.81659 -0.372668 -7.26362 -0.602712 0.0 0.0 0.0 7.75103 4.12595 -1.99429 -15.2231 0.321941 2.30712 34.1191 5.02333 -4.31237 -24.105 0.0 0.0 -0.0 0.0 -0.0 25.8449 12.2673 -0.52484 -26.2323 -0.16984 -3.987 8.04893 -28.6951 1.23084 10.134 -0.0 -0.0 0.0 0.0 0.0 
612.386854595 719.558 -1180.25205039 -172.225849981 -34.1392681122 -171.159520857 1.83954 0.274058 1.09555 1.84019 0.203794 1.11077 1.84419 0.00214274 1.1293 1.84245 0.180457 1.11479 -2.79171 -15.328 -3.00378 -2.49707 -25.551 -5.26159 -0.0 0.0 -0.0 -0.564709 20.7895 1.604 -7.45943 -48.1884 62.8276 0.716225 -19.5345 0.123294 12.247 0.267968 -1.53853 -1.91331 19.6917 -3.45985 -0.0 0.0 -0.0 7.61265 9.21618 -14.7133 -22.1983 27.168 -63.1494 0.925772 24.6358 -0.202158 30.2287 -0.0592312 3.81659 -0.372668 -7.26362 -0.602712 0.0 0.0 0.0 7.75103 4.12595 -1.99429 -15.2231 0.321941 2.30712 34.1191 5.02333 -4.31237 -24.105 0.0 0.0 -0.0 0.0 -0.0 25.8449 12.2673 -0.52484 -26.2323 -0.16984 -3.987 8.04893 -28.6951 1.23084 10.134 -0.0 -0.0 0.0 0.0 0.0 
621.867326487 720.101 -1169.19811885 -171.78987212 -34.7662750226 -170.333370383 1.78939 0.481546 1.20303 1.79011 0.404024 1.23123 1.79892 0.176675 1.28371 1.79682 0.37718 1.23971 -1.87172 -13.6583 -1.09094 -1.56402 -23.8297 -2.87513 -0.0 0.0 -0.0 -0.886741 23.3054 1.48032 -3.79268 -45.6743 62.4913 0.968334 -25.6258 0.220235 8.96563 0.228552 -1.1213 -2.46062 16.7394 -8.2554 -0.0 0.0 -0.0 7.83426 7.43395 -15.2283 -25.6148 27.6898 -62.4463 0.959268 25.4163 -0.216328 29.1951 -0.0905301 3.68828 0.0684383 -6.85434 -3.30385 0.0 0.0 0.0 7.14724 10.2033 -3.28179 -11.8253 0.303475 1.78619 34.0478 5.3808 -4.30511 -23.924 0.0 0.0 -0.0 0.0 -0.0 23.7071 10.9852 -0.249391 -20.1617 -0.293682 -3.06409 9.09792 -20.8193 1.33057 8.01213 -0.0 -0.0 0.0 0.0 0.0 
632.441780624 719.203 -1158.56721358 -172.858722516 -35.645966418 -171.000171603 1.6357 0.313302 1.1065 1.63635 0.242263 1.12419 1.64121 0.0335309 1.1495 1.63943 0.214641 1.12979 -0.45708 -11.6267 -1.79429 -0.210478 -19.3602 -3.18204 -0.0 0.0 -0.0 -1.6649 23.9371 0.511697 -1.10226 -45.9502 62.021 1.20922 -30.9208 0.334457 5.84114 0.168875 -0.726688 -2.97631 13.3342 -13.3144 -0.0 0.0 -0.0 7.73753 8.84795 -14.989 -25.1117 26.4867 -64.4018 0.881634 23.5923 -0.184125 28.5676 -0.108401 3.61011 0.132366 -7.86475 -4.13194 0.0 0.0 0.0 4.36163 13.693 -2.99012 -8.73382 0.25987 1.31389 31.7494 2.82387 -4.07819 -24.74 0.0 0.0 -0.0 0.0 -0.0 26.2918 2.91634 0.489545 -10.297 -0.285105 -1.55242 11.3543 -8.36547 1.60629 5.82841 -0.0 -0.0 0.0 0.0 0.0 
640.774497181 718.33 -1157.43008293 -172.477781431 -36.6788769269 -171.088845072 1.59188 0.295076 1.25829 1.59273 0.214416 1.27451 1.59762 -0.0222109 1.29223 1.59534 0.182134 1.27952 -1.4574 -10.9748 -2.14493 -1.27442 -18.0637 -3.61117 -0.0 0.0 -0.0 -0.268828 24.2287 2.43613 -0.0278831 -43.2363 60.5686 1.3039 -32.8574 0.384482 4.82819 0.144917 -0.599512 -3.08955 12.492 -14.5091 -0.0 0.0 -0.0 7.72623 10.9811 -14.8937 -25.5439 27.3551 -65.4236 0.782708 21.1928 -0.146431 28.3852 -0.113434 3.58736 0.0764023 -8.12615 -3.87481 0.0 0.0 0.0 3.89978 16.3596 -2.42273 -7.08771 0.226271 1.06353 32.3559 2.37495 -4.14232 -24.2184 0.0 0.0 -0.0 0.0 -0.0 26.8255 0.712701 1.52535 -8.97892 -0.264257 -1.35124 12.4583 -5.86334 1.75617 6.18915 -0.0 -0.0 0.0 0.0 0.0 
652.875172416 714.764 -1155.46443882 -172.774722367 -37.0366801209 -171.554119752 1.58915 0.385547 1.22436 1.58993 0.306863 1.2464 1.59676 0.0738203 1.28149 1.59457 0.275266 1.25376 -1.27534 -9.36259 -2.45477 -1.14685 -14.8773 -3.73061 -0.0 0.0 -0.0 -0.97418 23.7623 1.42325 2.08976 -44.9671 61.6387 1.44847 -35.6584 0.46589 3.80692 0.118489 -0.471733 -3.30442 10.6475 -16.9479 -0.0 0.0 -0.0 8.07962 10.8276 -15.6563 -26.276 25.0405 -64.7896 0.737277 20.0635 -0.130425 28.0295 -0.123042 3.54294 -0.207499 -9.62875 -2.6579 0.0 0.0 0.0 3.2208 18.1572 -1.90983 -7.70323 0.239677 1.15703 34.0349 0.911429 -4.31864 -24.6941 0.0 0.0 -0.0 0.0 -0.0 27.2721 -1.02989 1.79612 -9.13166 -0.26691 -1.37453 10.4241 -5.22243 1.48107 5.19642 -0.0 -0.0 0.0 0.0 0.0 
661.032264345 711.318 -1150.70603559 -172.614905383 -39.0413615625 -171.475605238 1.53355 0.236566 1.46414 1.53474 0.14293 1.47622 1.53855 -0.130923 1.47733 1.53552 0.104011 1.47947 -1.94584 -7.34405 -2.80045 -1.87617 -11.0434 -3.9009 -0.0 0.0 -0.0 -1.26463 23.2186 0.948823 3.64314 -45.5293 61.0243 1.49296 -36.4831 0.492087 3.07483 0.0981435 -0.380431 -3.32374 7.55431 -18.7846 -0.0 0.0 -0.0 7.96347 11.4432 -15.3846 -26.5807 25.9521 -66.0733 0.735352 20.0152 -0.129765 28.2911 -0.116003 3.57561 0.0625459 -10.4238 -4.71502 0.0 0.0 0.0 1.46525 14.8227 -1.94734 -5.97256 0.199427 0.894505 33.7889 0.542036 -4.29671 -25.7806 0.0 0.0 -0.0 0.0 -0.0 28.7423 -1.75131 1.77513 -6.35617 -0.209033 -0.95259 7.3938 0.0339435 1.0707 5.3231 -0.0 -0.0 0.0 0.0 0.0 
672.013716404 711.385 -1150.9643649 -172.276646214 -41.5715821877 -171.060461705 1.26031 0.288469 1.5766 1.26167 0.187575 1.59176 1.26716 -0.115847 1.59858 1.26362 0.138039 1.59681 -1.92506 -3.2943 -2.81124 -1.90158 -3.71354 -3.38771 -0.0 0.0 -0.0 -1.04287 23.7724 1.3313 4.53311 -44.2224 60.7311 1.73758 -40.7165 0.644801 -0.166897 -0.00591027 0.0204952 -3.29204 4.74688 -20.0841 -0.0 0.0 -0.0 8.06545 9.66305 -15.6629 -26.0858 26.2246 -66.1275 0.664015 18.2078 -0.106406 28.3675 -0.11392 3.58515 0.147286 -9.62039 -4.93696 0.0 0.0 0.0 0.488827 16.4984 -2.13051 -5.56812 0.188879 0.833334 34.9682 -1.61422 -4.42992 -25.2919 0.0 0.0 -0.0 0.0 -0.0 30.63 -2.0221 0.857214 -4.52716 -0.159744 -0.676238 4.10624 5.21985 0.611299 4.2285 -0.0 -0.0 0.0 0.0 0.0 
679.395314132 706.504 -1150.72496278 -169.674793115 -45.6056031889 -169.131518528 1.5343 0.278541 1.4831 1.53551 0.183614 1.49782 1.54046 -0.0948408 1.50604 1.53733 0.144174 1.50213 -0.655439 3.73733 -3.34753 -0.546492 9.3982 -3.15577 -0.0 0.0 -0.0 -0.921088 19.1749 0.866822 5.13298 -40.2241 59.4051 2.12238 -46.4286 0.910365 -1.34859 -0.0494648 0.16511 -2.53699 -1.14505 -17.7613 -0.0 0.0 -0.0 8.74579 8.62647 -17.1404 -26.0814 25.8885 -66.2389 0.484299 13.4909 -0.0572821 28.225 -0.117796 3.56736 -0.0285994 -12.2985 -4.88709 0.0 0.0 0.0 2.41091 18.0427 -2.94042 -6.40762 0.210292 0.960385 34.6456 -5.62249 -4.44856 -24.4248 0.0 0.0 -0.0 0.0 -0.0 33.9291 -2.42829 -1.35642 -2.75015 -0.103424 -0.409347 -0.272516 11.7064 -0.0425032 3.33579 -0.0 -0.0 0.0 0.0 0.0 
692.382278924 704.955 -1148.0062801 -168.523582541 -47.178615122 -167.807949743 1.62797 0.275833 1.42581 1.62908 0.184556 1.44047 1.63384 -0.081007 1.44998 1.63094 0.148983 1.44458 1.26878 7.32733 -2.30303 1.49879 14.8574 -1.87666 -0.0 0.0 -0.0 -0.227395 17.151 1.65947 4.62919 -38.1532 58.1399 2.24513 -48.0335 1.00048 -1.71358 -0.0635198 0.209596 -2.39784 -2.81546 -17.5789 -0.0 0.0 -0.0 8.71663 8.27941 -17.0837 -26.6027 25.4636 -66.389 0.485437 13.5215 -0.0575478 28.9905 -0.0964524 3.66281 0.348516 -12.6835 -7.43219 0.0 0.0 0.0 1.93156 16.1804 -3.58772 -7.44358 0.234144 1.11757 35.0631 -7.30971 -4.5173 -24.0759 0.0 0.0 -0.0 0.0 -0.0 35.8608 -1.45679 -2.11343 -2.25908 -0.0864013 -0.335905 -1.54343 15.8486 -0.248754 1.9116 -0.0 -0.0 0.0 0.0 0.0 
